<svg xmlns="http://www.w3.org/2000/svg" xmlns:xlink="http://www.w3.org/1999/xlink" width="500" zoomAndPan="magnify" viewBox="0 0 375 374.999991" height="500" preserveAspectRatio="xMidYMid meet" version="1.0"><defs><g/></defs><g fill="#ffffff" fill-opacity="1"><g transform="translate(0.183493, 245.899653)"><g><path d="M 372.171875 -75.203125 C 372.472656 -75.390625 372.726562 -75.394531 372.9375 -75.21875 C 373.15625 -75.050781 373.238281 -74.84375 373.1875 -74.59375 C 373.375 -74.300781 373.179688 -73.96875 372.609375 -73.59375 C 350.378906 -69.40625 327.929688 -65.695312 305.265625 -62.46875 C 282.609375 -59.25 259.976562 -56.460938 237.375 -54.109375 L 235.1875 74.734375 C 234.925781 78.441406 232.890625 80.410156 229.078125 80.640625 C 228.347656 80.484375 227.632812 80.265625 226.9375 79.984375 C 226.238281 79.710938 225.554688 79.390625 224.890625 79.015625 C 213.628906 67.878906 202.335938 56.863281 191.015625 45.96875 C 179.703125 35.082031 168.242188 24.296875 156.640625 13.609375 C 146.421875 3.441406 134.941406 -7.289062 122.203125 -18.59375 C 109.472656 -29.90625 97.15625 -39.5625 85.25 -47.5625 C 82.84375 -49.3125 82.492188 -51.265625 84.203125 -53.421875 C 84.691406 -54.566406 85.953125 -55.1875 87.984375 -55.28125 C 110.171875 -54.457031 132.5625 -54.28125 155.15625 -54.75 C 177.75 -55.226562 200.269531 -56.273438 222.71875 -57.890625 L 222.71875 -70.71875 C 222.28125 -112.269531 222.207031 -153.75 222.5 -195.15625 C 188.820312 -161.175781 153.878906 -128.078125 117.671875 -95.859375 C 81.472656 -63.648438 43.085938 -34.535156 2.515625 -8.515625 C 2.234375 -8.328125 1.867188 -8.40625 1.421875 -8.75 C 1.296875 -9.28125 1.367188 -9.644531 1.640625 -9.84375 C 21.597656 -26.050781 41.207031 -42.710938 60.46875 -59.828125 C 79.726562 -76.953125 98.488281 -94.429688 116.75 -112.265625 C 135.445312 -129.753906 153.800781 -147.691406 171.8125 -166.078125 C 189.820312 -184.460938 207.523438 -202.914062 224.921875 -221.4375 C 226.921875 -223.78125 229.484375 -224.628906 232.609375 -223.984375 C 233.335938 -223.828125 234.035156 -223.550781 234.703125 -223.15625 C 235.378906 -222.769531 236.03125 -222.257812 236.65625 -221.625 C 238.332031 -220.03125 239.160156 -217.976562 239.140625 -215.46875 C 239.171875 -191.34375 239.003906 -167.1875 238.640625 -143 C 238.285156 -118.820312 237.859375 -94.597656 237.359375 -70.328125 L 237.28125 -59.03125 C 260.019531 -60.851562 282.65625 -63.078125 305.1875 -65.703125 C 327.71875 -68.328125 350.046875 -71.492188 372.171875 -75.203125 Z M 101.25 -46.5 C 112.144531 -38.457031 122.757812 -29.972656 133.09375 -21.046875 C 143.425781 -12.128906 153.5625 -3.125 163.5 5.96875 C 173.414062 15.0625 183.398438 24.164062 193.453125 33.28125 C 203.503906 42.40625 213.347656 51.609375 222.984375 60.890625 L 222.75 -52.609375 C 202.519531 -50.773438 182.300781 -49.3125 162.09375 -48.21875 C 141.882812 -47.125 121.601562 -46.550781 101.25 -46.5 Z M 101.25 -46.5 "/></g></g></g><g fill="#ffffff" fill-opacity="1"><g transform="translate(248.846924, 183.277294)"><g><path d="M -0.953125 -15.625 L -2.046875 -15.46875 L -1.640625 -20.46875 L 3.234375 -21.171875 L 4.75 -10.5 L 5.8125 -15.609375 L 10.875 -16.328125 L 9.09375 -9.359375 L 13.515625 -1.921875 L 8.09375 -1.15625 L 5.296875 -6.640625 L 6.125 -0.875 L 1.25 -0.171875 Z M -0.953125 -15.625 "/></g></g></g><g fill="#ffffff" fill-opacity="1"><g transform="translate(262.007822, 181.399046)"><g><path d="M 0.625 -5.59375 C 1.363281 -5.226562 1.96875 -4.972656 2.4375 -4.828125 C 2.90625 -4.691406 3.304688 -4.648438 3.640625 -4.703125 C 4.140625 -4.765625 4.359375 -4.988281 4.296875 -5.375 C 4.273438 -5.550781 4.164062 -5.703125 3.96875 -5.828125 C 3.78125 -5.960938 3.410156 -6.117188 2.859375 -6.296875 C 0.742188 -6.972656 -0.441406 -8.242188 -0.703125 -10.109375 C -0.804688 -10.804688 -0.773438 -11.460938 -0.609375 -12.078125 C -0.453125 -12.703125 -0.179688 -13.253906 0.203125 -13.734375 C 0.597656 -14.222656 1.082031 -14.625 1.65625 -14.9375 C 2.238281 -15.257812 2.894531 -15.472656 3.625 -15.578125 C 3.9375 -15.628906 4.242188 -15.65625 4.546875 -15.65625 C 4.847656 -15.65625 5.164062 -15.640625 5.5 -15.609375 C 5.832031 -15.585938 6.179688 -15.53125 6.546875 -15.4375 C 6.910156 -15.34375 7.328125 -15.226562 7.796875 -15.09375 L 7.484375 -10.78125 C 6.265625 -11.257812 5.367188 -11.460938 4.796875 -11.390625 C 4.640625 -11.359375 4.515625 -11.285156 4.421875 -11.171875 C 4.328125 -11.054688 4.289062 -10.925781 4.3125 -10.78125 C 4.320312 -10.675781 4.34375 -10.59375 4.375 -10.53125 C 4.40625 -10.476562 4.492188 -10.414062 4.640625 -10.34375 C 4.785156 -10.28125 5.003906 -10.1875 5.296875 -10.0625 C 5.585938 -9.9375 6.015625 -9.769531 6.578125 -9.5625 C 8.285156 -8.90625 9.257812 -7.71875 9.5 -6 C 9.601562 -5.289062 9.5625 -4.617188 9.375 -3.984375 C 9.195312 -3.359375 8.894531 -2.796875 8.46875 -2.296875 C 8.050781 -1.796875 7.523438 -1.378906 6.890625 -1.046875 C 6.265625 -0.710938 5.554688 -0.488281 4.765625 -0.375 C 3.378906 -0.175781 1.859375 -0.285156 0.203125 -0.703125 Z M 0.625 -5.59375 "/></g></g></g><g fill="#ffffff" fill-opacity="1"><g transform="translate(272.465238, 179.906624)"><g><path d="M -0.953125 -15.625 L -2.046875 -15.46875 L -1.640625 -20.46875 L 3.234375 -21.171875 L 4.6875 -10.96875 L 5 -15.5 L 6.40625 -15.6875 C 7.195312 -15.800781 7.828125 -15.816406 8.296875 -15.734375 C 8.765625 -15.660156 9.203125 -15.46875 9.609375 -15.15625 C 9.941406 -14.90625 10.210938 -14.617188 10.421875 -14.296875 C 10.628906 -13.972656 10.8125 -13.5625 10.96875 -13.0625 C 11.007812 -12.90625 11.039062 -12.769531 11.0625 -12.65625 C 11.082031 -12.550781 11.113281 -12.398438 11.15625 -12.203125 C 11.195312 -12.003906 11.238281 -11.738281 11.28125 -11.40625 C 11.332031 -11.070312 11.398438 -10.609375 11.484375 -10.015625 L 11.984375 -6.5625 L 13.03125 -6.703125 L 12.65625 -1.8125 L 7.78125 -1.109375 L 7 -6.5625 C 6.875 -7.425781 6.773438 -8.085938 6.703125 -8.546875 C 6.628906 -9.015625 6.566406 -9.363281 6.515625 -9.59375 C 6.460938 -9.820312 6.414062 -9.976562 6.375 -10.0625 C 6.332031 -10.144531 6.273438 -10.222656 6.203125 -10.296875 C 5.941406 -10.535156 5.554688 -10.617188 5.046875 -10.546875 C 4.941406 -10.523438 4.84375 -10.5 4.75 -10.46875 L 6.125 -0.875 L 1.25 -0.171875 Z M -0.953125 -15.625 "/></g></g></g><g fill="#ffffff" fill-opacity="1"><g transform="translate(286.339139, 177.92662)"><g><path d="M 6.21875 -0.953125 C 5.3125 -0.867188 4.601562 -0.863281 4.09375 -0.9375 C 3.59375 -1.007812 3.09375 -1.210938 2.59375 -1.546875 C 1.78125 -2.097656 1.109375 -2.875 0.578125 -3.875 C 0.0546875 -4.875 -0.300781 -6.050781 -0.5 -7.40625 C -0.65625 -8.5 -0.664062 -9.507812 -0.53125 -10.4375 C -0.40625 -11.363281 -0.15625 -12.175781 0.21875 -12.875 C 0.601562 -13.582031 1.113281 -14.15625 1.75 -14.59375 C 2.382812 -15.03125 3.117188 -15.304688 3.953125 -15.421875 C 4.410156 -15.484375 4.828125 -15.488281 5.203125 -15.4375 C 5.585938 -15.394531 6 -15.296875 6.4375 -15.140625 L 6.359375 -15.6875 L 11.03125 -16.359375 L 12.421875 -6.625 L 13.46875 -6.765625 L 13.09375 -1.875 L 8.234375 -1.171875 L 7.609375 -5.53125 L 7.25 -1.03125 Z M 7.15625 -8.71875 C 7.101562 -9.082031 7.054688 -9.375 7.015625 -9.59375 C 6.972656 -9.820312 6.925781 -10.007812 6.875 -10.15625 C 6.820312 -10.300781 6.769531 -10.414062 6.71875 -10.5 C 6.664062 -10.582031 6.59375 -10.65625 6.5 -10.71875 C 6.25 -10.9375 5.960938 -11.023438 5.640625 -10.984375 C 5.191406 -10.910156 4.859375 -10.617188 4.640625 -10.109375 C 4.429688 -9.597656 4.378906 -8.96875 4.484375 -8.21875 C 4.742188 -6.414062 5.582031 -5.613281 7 -5.8125 C 7.03125 -5.8125 7.109375 -5.820312 7.234375 -5.84375 C 7.359375 -5.863281 7.46875 -5.890625 7.5625 -5.921875 Z M 7.15625 -8.71875 "/></g></g></g><g fill="#ffffff" fill-opacity="1"><g transform="translate(300.628958, 175.887258)"><g><path d="M -0.125 -9.765625 L -1.21875 -9.609375 L -0.8125 -14.65625 L 4.0625 -15.359375 L 4.6875 -10.96875 L 5.03125 -15.5 C 5.632812 -15.582031 6.101562 -15.644531 6.4375 -15.6875 C 6.769531 -15.738281 7.03125 -15.769531 7.21875 -15.78125 C 7.414062 -15.800781 7.578125 -15.8125 7.703125 -15.8125 C 7.828125 -15.8125 7.960938 -15.800781 8.109375 -15.78125 C 8.546875 -15.726562 8.960938 -15.59375 9.359375 -15.375 C 9.765625 -15.15625 10.113281 -14.851562 10.40625 -14.46875 C 10.550781 -14.28125 10.671875 -14.097656 10.765625 -13.921875 C 10.859375 -13.753906 10.9375 -13.539062 11 -13.28125 C 11.070312 -13.03125 11.144531 -12.6875 11.21875 -12.25 C 11.289062 -11.8125 11.378906 -11.222656 11.484375 -10.484375 L 12.046875 -6.5625 L 13.078125 -6.71875 L 12.71875 -1.8125 L 7.84375 -1.125 L 6.921875 -7.546875 C 6.847656 -8.054688 6.789062 -8.460938 6.75 -8.765625 C 6.707031 -9.066406 6.664062 -9.300781 6.625 -9.46875 C 6.59375 -9.632812 6.554688 -9.765625 6.515625 -9.859375 C 6.472656 -9.953125 6.425781 -10.050781 6.375 -10.15625 C 6.113281 -10.5 5.679688 -10.628906 5.078125 -10.546875 C 5.035156 -10.535156 4.988281 -10.523438 4.9375 -10.515625 C 4.882812 -10.515625 4.820312 -10.5 4.75 -10.46875 L 6.125 -0.875 L 1.25 -0.171875 Z M -0.125 -9.765625 "/></g></g></g><path stroke-linecap="butt" transform="matrix(0.409508, -0.0584427, 0.0584427, 0.409508, 312.03429, 143.756592)" fill="none" stroke-linejoin="miter" d="M 5.084409 56.893538 C 6.870109 58.149966 8.751924 59.133944 10.731189 59.836124 C 12.721137 60.53029 14.560129 60.878591 16.26686 60.883694 C 17.220387 60.886231 18.009614 60.636388 18.631876 60.15286 C 19.272834 59.672001 19.594592 59.021582 19.589133 58.19092 C 19.59308 57.762234 19.515568 57.369616 19.357931 57.00372 C 19.218991 56.640491 18.929142 56.265265 18.496396 55.888723 C 18.06632 55.493484 17.475985 55.084912 16.718711 54.642978 C 15.9788 54.21306 15.0025 53.701711 13.777793 53.126295 C 11.516693 52.059571 9.759085 51.141014 8.522334 50.38264 C 7.289584 49.59622 6.214416 48.775057 5.299496 47.900452 C 4.046669 46.786845 3.091613 45.391412 2.426312 43.703471 C 1.773028 41.998167 1.450925 40.177966 1.450654 38.241534 C 1.451698 36.162207 1.790641 34.255108 2.458133 32.518903 C 3.145656 30.776018 4.105647 29.262796 5.327424 27.98725 C 6.570566 26.695677 8.010064 25.699214 9.659267 24.971152 C 11.299123 24.241756 13.105963 23.87959 15.090472 23.876642 C 16.110771 23.87917 17.065641 23.939132 17.964429 24.057863 C 18.863217 24.176594 20.033121 24.400789 21.471471 24.749146 L 21.98266 22.637696 L 32.435743 25.188316 L 29.177718 38.45934 C 27.81939 37.349754 26.311523 36.485916 24.660798 35.887857 C 23.020756 35.281783 21.422156 34.986868 19.877017 34.985749 C 18.675094 34.985917 17.688214 35.217091 16.936408 35.672592 C 16.192616 36.138775 15.81877 36.753144 15.814871 37.515698 C 15.816261 37.906991 15.897776 38.271563 16.067429 38.620097 C 16.239751 38.949934 16.570997 39.302451 17.058499 39.696347 C 17.546001 40.090242 18.189758 40.525516 19.008469 41.004835 C 19.835193 41.494837 20.872931 42.04357 22.128361 42.671065 C 23.345062 43.302572 24.365437 43.839288 25.205512 44.302579 C 26.056271 44.757855 26.785499 45.195787 27.383848 45.615041 C 27.99288 46.026281 28.508427 46.424179 28.947853 46.820752 C 29.380598 47.197294 29.795989 47.628592 30.184679 48.113314 C 32.308436 50.677119 33.373249 53.84337 33.377784 57.621415 C 33.374109 59.986533 32.96843 62.160736 32.170097 64.145356 C 31.381112 66.131311 30.280922 67.824841 28.878874 69.227282 C 27.467478 70.628387 25.783605 71.733057 23.827254 72.541291 C 21.873572 73.330827 19.718179 73.729099 17.343712 73.724089 C 14.730196 73.72312 12.195424 73.370911 9.723367 72.646096 C 7.252645 71.911934 4.696395 70.774471 2.035922 69.23104 Z M 37.867511 37.658177 L 34.957522 37.662591 L 37.861677 24.598614 L 50.938602 24.604796 L 50.934362 42.012651 L 58.984577 42.016866 L 58.980803 24.598328 L 72.057729 24.60451 L 72.056493 73.004624 L 58.979567 72.998442 L 58.983704 54.856078 L 50.941503 54.862545 L 50.9387 72.995561 L 37.86044 72.998728 Z M 85.600185 58.845407 C 87.631436 58.849129 89.223411 59.524654 90.384125 60.882665 C 91.554187 62.24201 92.131368 64.079536 92.135697 66.388564 C 92.137359 68.716288 91.511282 70.563331 90.277497 71.923013 C 89.046382 73.263997 87.414531 73.937303 85.381946 73.942929 C 83.360044 73.940541 81.729341 73.269028 80.519216 71.923044 C 79.31176 70.558362 78.709212 68.76491 78.712906 66.533338 C 78.70991 64.214962 79.337321 62.358571 80.587125 60.953481 C 81.846277 59.549726 83.520858 58.844363 85.600185 58.845407 Z M 85.600185 58.845407 " stroke="#ffffff" stroke-width="1.950252" stroke-opacity="1" stroke-miterlimit="4"/></svg>